<?xml version="1.0" standalone="no"?><!DOCTYPE svg PUBLIC "-//W3C//DTD SVG 1.1//EN" "http://www.w3.org/Graphics/SVG/1.1/DTD/svg11.dtd"><svg t="1641021475227" class="icon" viewBox="0 0 1024 1024" version="1.1" xmlns="http://www.w3.org/2000/svg" p-id="4197" xmlns:xlink="http://www.w3.org/1999/xlink" width="200" height="200"><defs><style type="text/css"></style></defs><path d="M384 640m-384 0a384 384 0 1 0 768 0 384 384 0 1 0-768 0Z" fill="#EACA44" p-id="4198"></path><path d="M992 896h-240.64a450.56 450.56 0 0 1-137.472 128H992a32 32 0 0 0 32-32v-64a32 32 0 0 0-32-32zM992 736h-170.56a444.032 444.032 0 0 1-49.856 128H992a32 32 0 0 0 32-32v-64a32 32 0 0 0-32-32zM992 576h-165.088c3.008 20.96 5.088 42.208 5.088 64s-2.08 43.04-5.088 64H992a32 32 0 0 0 32-32v-64a32 32 0 0 0-32-32zM992 416h-220.416a444.96 444.96 0 0 1 49.856 128H992a32 32 0 0 0 32-32v-64a32 32 0 0 0-32-32zM992 256H613.92a450.56 450.56 0 0 1 137.472 128H992a32 32 0 0 0 32-32V288a32 32 0 0 0-32-32zM992 96H224a32 32 0 0 0-32 32v64c0 16.416 12.48 29.376 28.384 31.264A446.08 446.08 0 0 1 384 192c58.56 0 114.336 11.552 165.632 32H992a32 32 0 0 0 32-32V128a32 32 0 0 0-32-32z" fill="#EACA44" p-id="4199"></path><path d="M415.264 451.712c0.128-1.28 0.736-2.4 0.736-3.744v-32a32 32 0 1 0-64 0v32c0 1.344 0.608 2.464 0.736 3.744C297.248 463.968 256 507.584 256 559.968c0 61.856 57.312 112 128 112 35.328 0 64 21.504 64 48s-28.672 48-64 48-64-21.504-64-48a32 32 0 1 0-64 0c0 52.128 40.896 95.552 96 108.032v35.968a32 32 0 1 0 64 0v-35.968c55.104-12.48 96-55.904 96-108.032 0-61.856-57.312-112-128-112-35.328 0-64-21.504-64-48s28.672-48 64-48 64 21.504 64 48a32 32 0 1 0 64 0c0-52.384-41.248-96-96.736-108.256z" fill="" p-id="4200"></path><path d="M384 255.968c-212.064 0-384 171.936-384 384s171.936 384 384 384 384-171.936 384-384-171.936-384-384-384z m0 704c-176.704 0-320-143.296-320-320s143.296-320 320-320 320 143.296 320 320-143.296 320-320 320z" fill="" p-id="4201"></path><path d="M832 895.968h64v128h-64zM832 735.968h64v128h-64zM832 575.968h64v128h-64zM832 415.968h64v128h-64zM832 255.968h64v128h-64zM704 95.968h64v128h-64zM576 95.968h64v128h-64zM832 95.968h64v128h-64zM992 896h-32v127.968h32.16A31.936 31.936 0 0 0 1024 992v-64a32 32 0 0 0-32-32zM992 735.968h-32v127.968h32.16a31.936 31.936 0 0 0 31.84-31.968v-64a32 32 0 0 0-32-32zM992 576h-32v127.968h32.16A31.936 31.936 0 0 0 1024 672v-64a32 32 0 0 0-32-32zM992 415.968h-32v127.968h32.16a31.936 31.936 0 0 0 31.84-31.968v-64a32 32 0 0 0-32-32zM992 256h-32v127.968h32.16A31.936 31.936 0 0 0 1024 352V288a32 32 0 0 0-32-32zM992 95.968h-32v127.968h32.16A31.936 31.936 0 0 0 1024 191.968v-64a32 32 0 0 0-32-32zM704 327.84c17.12 17.504 33.28 35.968 47.328 56.128H768V256h-64v71.84zM704 952.16v71.808h64V896h-16.64c-14.08 20.16-30.208 38.656-47.36 56.16zM448 197.152c21.856 3.2 43.296 7.552 64 13.792V96h-64v101.152zM320 197.152A439.04 439.04 0 0 1 384 192V96h-64v101.152zM192 128v64c0 16.416 12.48 29.376 28.384 31.264A448.64 448.64 0 0 1 256 211.072V96H224a32 32 0 0 0-32 32z" fill="" p-id="4202"></path></svg>