<?xml version="1.0" standalone="no"?><!DOCTYPE svg PUBLIC "-//W3C//DTD SVG 1.1//EN" "http://www.w3.org/Graphics/SVG/1.1/DTD/svg11.dtd"><svg t="1671606173340" class="icon" viewBox="0 0 1024 1024" version="1.1" xmlns="http://www.w3.org/2000/svg" p-id="7144" xmlns:xlink="http://www.w3.org/1999/xlink" width="100" height="100"><path d="M146.366233 18.076244l731.186479 0 0 987.835493-731.186479 0 0-987.835493Z" fill="#e6e6e6" p-id="7145"></path><path d="M836.688862 1024H187.230083a58.964131 58.964131 0 0 1-58.892019-58.892019v-906.215962a58.964131 58.964131 0 0 1 58.892019-58.892019h649.458779a58.964131 58.964131 0 0 1 58.892019 58.892019v906.215962a58.964131 58.964131 0 0 1-58.892019 58.892019zM187.230083 36.056338a22.835681 22.835681 0 0 0-22.835681 22.835681v906.215962a22.835681 22.835681 0 0 0 22.835681 22.835681h649.458779a22.835681 22.835681 0 0 0 22.835681-22.835681v-906.215962a22.835681 22.835681 0 0 0-22.835681-22.835681H187.230083z" fill="#e6e6e6" p-id="7146"></path><path d="M243.429895 114.599061l537.071174 0 0 399.960939-537.071174 0 0-399.960939Z" fill="#e6e6e6" p-id="7147"></path><path d="M739.6252 532.588169H284.281726a58.964131 58.964131 0 0 1-58.892019-58.892019V155.462911a58.964131 58.964131 0 0 1 58.892019-58.892019h455.343474a58.964131 58.964131 0 0 1 58.892019 58.892019v318.233239a58.964131 58.964131 0 0 1-58.892019 58.892019zM284.281726 132.62723a22.835681 22.835681 0 0 0-22.835681 22.835681v318.233239a22.835681 22.835681 0 0 0 22.835681 22.835681h455.343474a22.835681 22.835681 0 0 0 22.835681-22.835681V155.462911a22.835681 22.835681 0 0 0-22.835681-22.835681H284.281726z" fill="#e6e6e6" p-id="7148"></path><path d="M368.942008 694.084507h-16.826292v-16.826291a40.984038 40.984038 0 0 0-40.863849-40.86385 40.984038 40.984038 0 0 0-40.86385 40.86385v16.826291h-16.826291a40.984038 40.984038 0 0 0-40.86385 40.86385 40.984038 40.984038 0 0 0 40.86385 40.86385h16.826291v16.826291a40.984038 40.984038 0 0 0 40.86385 40.863849 40.984038 40.984038 0 0 0 40.863849-40.863849v-16.826291h16.826292a40.984038 40.984038 0 0 0 40.863849-40.86385 40.984038 40.984038 0 0 0-40.863849-40.86385z" fill="#e6e6e6" p-id="7149"></path><path d="M311.251867 851.530516a58.964131 58.964131 0 0 1-58.892019-57.69014 58.892019 58.892019 0 0 1 0-117.784038 58.892019 58.892019 0 0 1 117.784037 0 58.892019 58.892019 0 0 1 0 117.784038 58.964131 58.964131 0 0 1-58.892018 57.69014z m-57.690141-139.41784a22.835681 22.835681 0 1 0 0 45.671362h16.826291a18.028169 18.028169 0 0 1 18.028169 18.028169v16.826291a22.835681 22.835681 0 0 0 45.671361 0v-16.826291a18.028169 18.028169 0 0 1 18.028169-18.028169h16.826292a22.835681 22.835681 0 0 0 0-45.671362h-16.826292a18.028169 18.028169 0 0 1-18.028169-18.028169v-16.826291a22.835681 22.835681 0 0 0-45.671361 0v16.826291a18.028169 18.028169 0 0 1-18.028169 18.028169h-16.826291z" fill="#e6e6e6" p-id="7150"></path><path d="M773.011018 604.95296l34.644131 60.005396-144.731141 83.560563-34.644131-60.005396 144.731141-83.560563Z" fill="#e6e6e6" p-id="7151"></path><path d="M675.769425 753.853897a53.159061 53.159061 0 0 1-13.773521-1.826855 52.630235 52.630235 0 0 1-12.715868-96.450704l84.720375-48.916432a52.67831 52.67831 0 0 1 52.67831 91.234554l-84.720375 48.916432a52.221596 52.221596 0 0 1-26.188921 7.043005z m84.467982-118.180658a16.381596 16.381596 0 0 0-8.208827 2.199437l-84.720375 48.916432a16.633991 16.633991 0 0 0-6.081503 22.703474 16.718122 16.718122 0 0 0 22.703475 6.081503l84.720375-48.916432a16.573897 16.573897 0 0 0-4.014272-30.407512 16.970516 16.970516 0 0 0-4.410892-0.564883z" fill="#e6e6e6" p-id="7152"></path><path d="M773.023068 744.724914l34.644132 60.005396-144.731142 83.560564-34.644131-60.005396 144.731141-83.560564Z" fill="#e6e6e6" p-id="7153"></path><path d="M675.769425 893.6323a53.159061 53.159061 0 0 1-13.78554-1.838873 52.630235 52.630235 0 0 1-12.715868-96.450704l84.720376-48.916432a52.696338 52.696338 0 0 1 52.678309 91.282629l-84.720375 48.916432a52.221596 52.221596 0 0 1-26.176902 7.006948z m84.467982-118.180657a16.381596 16.381596 0 0 0-8.220845 2.16338l-84.720376 48.916432a16.633991 16.633991 0 0 0-6.081502 22.703475 16.718122 16.718122 0 0 0 22.703474 6.081502l84.720375-48.856338a16.573897 16.573897 0 0 0-4.014272-30.407512 16.970516 16.970516 0 0 0-4.398873-0.600939z" fill="#e6e6e6" p-id="7154"></path></svg>